
<svg
   viewBox="0 0 81.9 71.52"
   version="1.1"
   xmlns="http://www.w3.org/2000/svg"
   xmlns:svg="http://www.w3.org/2000/svg">
  <defs
     id="defs29376" />

  <g
     id="g29130"
     transform="matrix(3.7795276,0,0,3.7795276,-356.99629,-601.53127)">
    <g
       id="g29123">
      <path
         d="m 113.57591,169.29554 c -0.46058,0 -0.87351,0.20987 -1.15627,0.5403 l -0.72456,-0.52757 c 0.0769,-0.21781 0.12108,-0.45168 0.12108,-0.69646 0,-0.24056 -0.0426,-0.47051 -0.11701,-0.68509 l 0.72294,-0.52198 c 0.28274,0.32876 0.69457,0.53749 1.15382,0.53749 0.85011,0 1.54183,-0.71133 1.54183,-1.5858 0,-0.87448 -0.69172,-1.58581 -1.54183,-1.58581 -0.85012,0 -1.54184,0.71133 -1.54184,1.58581 0,0.15651 0.023,0.30745 0.0643,0.45038 l -0.72343,0.52225 c -0.3022,-0.3856 -0.73732,-0.65482 -1.23307,-0.73701 v -0.89674 c 0.69842,-0.15087 1.22465,-0.7891 1.22465,-1.55171 0,-0.87447 -0.69173,-1.58581 -1.54184,-1.58581 -0.85011,0 -1.54184,0.71134 -1.54184,1.58581 0,0.7524 0.5126,1.38275 1.19704,1.54439 v 0.90839 c -0.93408,0.16864 -1.64672,1.00709 -1.64672,2.01543 0,1.01325 0.71969,1.85477 1.66052,2.01767 v 0.95919 c -0.69144,0.15632 -1.21084,0.79053 -1.21084,1.54805 0,0.87448 0.69173,1.58582 1.54184,1.58582 0.85011,0 1.54184,-0.71134 1.54184,-1.58582 0,-0.75752 -0.5194,-1.39173 -1.21084,-1.54805 v -0.95922 c 0.48599,-0.0842 0.91311,-0.34808 1.2122,-0.72512 l 0.7294,0.53099 c -0.0405,0.14165 -0.0631,0.29109 -0.0631,0.44603 0,0.87447 0.69173,1.58581 1.54184,1.58581 0.85011,0 1.54184,-0.71134 1.54184,-1.58581 0,-0.87447 -0.69173,-1.58581 -1.54184,-1.58581 z m 0,-3.70799 c 0.41223,0 0.74753,0.345 0.74753,0.76888 0,0.42387 -0.3353,0.76884 -0.74753,0.76884 -0.41224,0 -0.74753,-0.34497 -0.74753,-0.76884 0,-0.42388 0.33529,-0.76888 0.74753,-0.76888 z m -4.49884,-1.44395 c 0,-0.42387 0.33533,-0.76884 0.74756,-0.76884 0.41224,0 0.74753,0.34497 0.74753,0.76884 0,0.42388 -0.33529,0.76885 -0.74753,0.76885 -0.41223,0 -0.74756,-0.34497 -0.74756,-0.76885 z m 1.49509,8.99312 c 0,0.42388 -0.33529,0.76885 -0.74753,0.76885 -0.41223,0 -0.74756,-0.34497 -0.74756,-0.76885 0,-0.42387 0.33533,-0.76884 0.74756,-0.76884 0.41224,0 0.74753,0.34497 0.74753,0.76884 z m -0.74759,-3.45263 c -0.57494,0 -1.04267,-0.48098 -1.04267,-1.07228 0,-0.59135 0.46773,-1.07241 1.04267,-1.07241 0.57492,0 1.04265,0.48106 1.04265,1.07241 0,0.5913 -0.46773,1.07228 -1.04265,1.07228 z m 3.75134,1.96613 c -0.41224,0 -0.74753,-0.345 -0.74753,-0.76887 0,-0.42388 0.33529,-0.76885 0.74753,-0.76885 0.41223,0 0.74753,0.34497 0.74753,0.76885 0,0.42387 -0.3353,0.76887 -0.74753,0.76887 z"
         id="path6"
       
         style="fill:#3865ab;fill-opacity:1;stroke-width:0.0251263" />
      <g
         style="overflow:hidden;fill:currentColor"
         id="g194"
         transform="matrix(0.01275613,0,0,0.01354165,95.226139,161.6633)">
        <path
           d="m 213.33333,128 h 85.33334 v 85.33333 H 213.33333 V 426.66667 A 85.333333,85.333333 0 0 1 128,512 a 85.333333,85.333333 0 0 1 85.33333,85.33333 v 213.33334 h 85.33334 V 896 H 213.33333 C 167.68,884.48 128,857.6 128,810.66667 V 640 A 85.333333,85.333333 0 0 0 42.666667,554.66667 H 0 V 469.33333 H 42.666667 A 85.333333,85.333333 0 0 0 128,384 V 213.33333 A 85.333333,85.333333 0 0 1 213.33333,128 m 597.33334,0 A 85.333333,85.333333 0 0 1 896,213.33333 V 384 a 85.333333,85.333333 0 0 0 85.33333,85.33333 H 1024 v 85.33334 H 981.33333 A 85.333333,85.333333 0 0 0 896,640 V 810.66667 A 85.333333,85.333333 0 0 1 810.66667,896 h -85.33334 v -85.33333 h 85.33334 V 597.33333 A 85.333333,85.333333 0 0 1 896,512 85.333333,85.333333 0 0 1 810.66667,426.66667 V 213.33333 H 725.33333 V 128 h 85.33334 M 512,640 A 42.666667,42.666667 0 0 1 554.66667,682.66667 42.666667,42.666667 0 0 1 512,725.33333 42.666667,42.666667 0 0 1 469.33333,682.66667 42.666667,42.666667 0 0 1 512,640 m -170.66667,0 A 42.666667,42.666667 0 0 1 384,682.66667 42.666667,42.666667 0 0 1 341.33333,725.33333 42.666667,42.666667 0 0 1 298.66667,682.66667 42.666667,42.666667 0 0 1 341.33333,640 m 341.33334,0 a 42.666667,42.666667 0 0 1 42.66666,42.66667 42.666667,42.666667 0 0 1 -42.66666,42.66666 A 42.666667,42.666667 0 0 1 640,682.66667 42.666667,42.666667 0 0 1 682.66667,640 Z"
           fill=""
           id="path185"
           style="fill:#3865ab;fill-opacity:1" />
        <path
           d="m 512,640 c 23.56415,0 42.66667,19.10252 42.66667,42.66667 0,23.56415 -19.10252,42.66666 -42.66667,42.66666 -23.56415,0 -42.66667,-19.10251 -42.66667,-42.66666 C 469.33333,659.10252 488.43585,640 512,640 m -170.66667,0 C 364.89748,640 384,659.10252 384,682.66667 c 0,23.56415 -19.10252,42.66666 -42.66667,42.66666 -23.56414,0 -42.66666,-19.10252 -42.66666,-42.66666 0,-23.56415 19.10251,-42.66667 42.66666,-42.66667 m 341.33334,0 c 23.56415,0 42.66666,19.10252 42.66666,42.66667 0,23.56414 -19.10252,42.66666 -42.66666,42.66666 C 659.10252,725.33333 640,706.23082 640,682.66667 640,659.10252 659.10252,640 682.66667,640 Z"
           fill=""
           id="path185-3"
           style="overflow:hidden;fill:#84aff1;fill-opacity:1"
            />
      </g>
    </g>
  </g>
</svg>
